# xmcd
#
# Track frame offsets: 
#        182
#        36107
#        65360
#        105167
#
# Disc length: 2689 seconds
#
# Revision: 1
# Processed by: cddbd v1.5.2PL0 Copyright (c) Steve Scherf et al.
# Submitted via: ExactAudioCopy v1.0b3
#
DISCID=260a7f04
DTITLE=Marcial Solal - Big Band
DYEAR=1981
DGENRE=Jazz
TTITLE0=Texte et prétexte
TTITLE1=Valses à trois temps
TTITLE2=Tango
TTITLE3=Suite
EXTD=
EXTT0=
EXTT1=
EXTT2=
EXTT3=
PLAYORDER=
